<svg width="89" height="118" viewBox="0 0 89 118" fill="none" xmlns="http://www.w3.org/2000/svg">
<path d="M89 115.64V101.562C89 85.0791 75.7851 71.6438 59.3515 71.1215C59.2878 71.1163 59.2331 71.0846 59.1682 71.0846C59.1292 71.0846 59.0968 71.1048 59.0583 71.1067C59.0476 71.1064 59.0374 71.1052 59.0268 71.1051C65.32 66.5941 69.4401 59.2584 69.4401 50.967V46.8727H73.0057C76.7565 46.8727 79.8082 43.8352 79.8082 40.1016C79.8082 36.368 76.7565 33.3304 73.0057 33.3304H72.8081C71.9184 22.4358 64.9051 13.1426 54.6384 9.2719L55.3907 2.62389C55.466 1.95668 55.253 1.28832 54.8026 0.787051C54.3535 0.286933 53.7098 0 53.0349 0H35.964C35.2891 0 34.6454 0.286933 34.1962 0.787051C33.7459 1.28832 33.5329 1.95668 33.6081 2.62389L34.361 9.27608C24.0881 13.1485 17.0728 22.4377 16.1828 33.3304H15.9943C12.2434 33.3304 9.19185 36.368 9.19185 40.1016C9.19185 43.8352 12.2434 46.8727 15.9943 46.8727H19.5599V50.967C19.5599 59.2584 23.6796 66.5942 29.9723 71.1051C29.9616 71.1052 29.9512 71.1064 29.9405 71.1067C29.902 71.1048 29.8696 71.0846 29.8307 71.0846C29.7657 71.0846 29.711 71.1163 29.6473 71.1215C13.2149 71.6438 0 85.0791 0 101.562V115.64C0 116.943 1.06158 118 2.37089 118H22.997H66.0019H86.6291C87.9384 118 89 116.943 89 115.64ZM32.2016 94.2732V75.7919H56.7973V94.2732H32.2016ZM34.916 14.1796L35.8517 22.4477C35.9975 23.744 37.1703 24.6717 38.4726 24.5288C39.7738 24.3824 40.7104 23.2151 40.5634 21.9199L38.6173 4.72H50.3815L48.4355 21.9199C48.2885 23.2151 49.225 24.3824 50.5262 24.5288C50.6165 24.5392 50.7057 24.5438 50.7948 24.5438C51.9849 24.5438 53.0106 23.653 53.1472 22.4477L54.0834 14.1751C61.8845 17.5871 67.2128 24.8343 68.0474 33.3304H20.9433C21.7787 24.836 27.1099 17.5912 34.916 14.1796ZM13.9336 40.1016C13.9336 38.97 14.8586 38.0504 15.9943 38.0504H18.4566H70.5341H73.0057C74.1414 38.0504 75.0664 38.97 75.0664 40.1016C75.0664 41.2332 74.1414 42.1527 73.0057 42.1527H67.0692H21.9308H15.9943C14.8586 42.1527 13.9336 41.2332 13.9336 40.1016ZM24.3017 50.967V46.8727H64.6983V50.967C64.6983 62.0526 55.6373 71.072 44.4994 71.072C33.3627 71.072 24.3017 62.0526 24.3017 50.967ZM4.74179 101.562C4.74179 88.4225 14.6784 77.569 27.4598 76.0054V94.2732H22.997C21.6877 94.2732 20.6261 95.3299 20.6261 96.6332V113.28H4.74179V101.562ZM25.3679 113.28V98.9932H63.631V113.28H25.3679ZM84.2582 113.28H68.3727V96.6332C68.3727 95.3299 67.3112 94.2732 66.0019 94.2732H61.5391V76.0054C74.3214 77.5689 84.2582 88.4225 84.2582 101.562V113.28Z" fill="#255D7D"/>
</svg>
