<svg width="33" height="25" viewBox="0 0 33 25" fill="none" xmlns="http://www.w3.org/2000/svg">
<path fill-rule="evenodd" clip-rule="evenodd" d="M32.4644 5.3124C32.4644 5.3124 32.1404 2.91737 31.1684 1.85291C29.9372 0.455811 28.5116 0.455813 27.9284 0.389284C23.3277 0.0566406 16.459 0.0566406 16.459 0.0566406H16.3942C16.3942 0.0566406 9.52549 0.0566406 4.92475 0.389284C4.27676 0.455813 2.85116 0.522339 1.61998 1.85291C0.647991 2.91737 0.323995 5.3124 0.323995 5.3124C0.323995 5.3124 0 8.17313 0 10.9673V11.3V13.6285C0 16.4892 0.323995 19.2834 0.323995 19.2834C0.323995 19.2834 0.647991 21.6785 1.61998 22.8094C2.85116 24.2065 4.47116 24.14 5.24875 24.2731C7.84071 24.5392 16.3942 24.6057 16.3942 24.6057C16.3942 24.6057 23.2629 24.5392 27.8636 24.2731C28.5116 24.2065 29.8724 24.2065 31.1035 22.8094C32.0755 21.745 32.3995 19.2834 32.3995 19.2834C32.3995 19.2834 32.7235 16.4892 32.7235 13.6285V11.433V10.9008C32.7883 8.17314 32.4644 5.3124 32.4644 5.3124ZM21.9021 11.9653L13.0246 16.8884V9.30412V6.97562L17.0422 9.2376L21.9021 11.9653Z" fill="white"/>
</svg>
