<svg width="122" height="64" viewBox="0 0 122 64" fill="none" xmlns="http://www.w3.org/2000/svg">
<path d="M96.0498 63.3383H90.9867V46.4714H89.0419V43.1173C89.7812 43.1173 90.4027 42.8016 90.9064 42.1704C91.4207 41.5392 91.6779 40.924 91.6779 40.3248H96.0498V63.3383Z" fill="#FBA500"/>
<path d="M97.0946 59.4064V44.5937C97.0946 41.6087 99.0823 40.1162 103.058 40.1162C106.958 40.1162 108.908 41.598 108.908 44.5616V59.3743C108.908 60.701 108.357 61.7281 107.253 62.4556C106.16 63.1831 104.751 63.5469 103.026 63.5469C101.247 63.5469 99.811 63.1885 98.718 62.4717C97.6357 61.7548 97.0946 60.7331 97.0946 59.4064ZM103.845 59.6471V43.9678C103.845 43.5078 103.572 43.2778 103.026 43.2778C102.447 43.2778 102.158 43.5078 102.158 43.9678V59.6471C102.158 60.1072 102.447 60.3372 103.026 60.3372C103.572 60.3372 103.845 60.1072 103.845 59.6471Z" fill="#FBA500"/>
<path d="M109.889 59.4064V44.5937C109.889 41.6087 111.877 40.1162 115.852 40.1162C119.753 40.1162 121.703 41.598 121.703 44.5616V59.3743C121.703 60.701 121.151 61.7281 120.047 62.4556C118.954 63.1831 117.545 63.5469 115.82 63.5469C114.041 63.5469 112.605 63.1885 111.512 62.4717C110.43 61.7548 109.889 60.7331 109.889 59.4064ZM116.64 59.6471V43.9678C116.64 43.5078 116.367 43.2778 115.82 43.2778C115.241 43.2778 114.952 43.5078 114.952 43.9678V59.6471C114.952 60.1072 115.241 60.3372 115.82 60.3372C116.367 60.3372 116.64 60.1072 116.64 59.6471Z" fill="#FBA500"/>
<path d="M27.4647 34.8133H20.7042V15.4458L16.7585 34.8133H11.5377L7.01463 15.4458V34.8133H1.09613V0.312766H10.84L14.3045 18.2126L17.3118 0.312766H27.4647V34.8133Z" fill="white"/>
<path d="M49.647 34.8133H42.1407L40.8655 25.5506H37.4732L36.1981 34.8133H28.6917L34.3696 0.312766H43.9691L49.647 34.8133ZM40.24 20.7629L39.1574 10.4656L38.1228 20.7629H40.24Z" fill="white"/>
<path d="M50.85 21.0034H57.7549V28.9188C57.7549 29.7048 58.2281 30.0977 59.1744 30.0977C60.0886 30.0977 60.5457 29.7048 60.5457 28.9188V24.8288C60.5457 23.5778 59.7117 22.1102 58.0436 20.426C54.8197 17.2984 52.8148 15.1972 52.0289 14.1226C51.243 13.048 50.85 11.8691 50.85 10.5859V6.71244C50.85 2.23748 53.7691 0 59.6074 0C64.8363 0 67.4507 2.03699 67.4507 6.11097V12.0776H60.5457V5.72603C60.5457 5.03634 60.1688 4.69149 59.415 4.69149C58.5328 4.69149 58.0917 5.35712 58.0917 6.68838L58.2361 8.92586C58.2361 10.209 59.0862 11.7007 60.7863 13.4008C63.9461 16.4322 65.951 18.5494 66.8011 19.7524C67.6672 20.9553 68.1003 22.3187 68.1003 23.8424V28.2452C68.1003 32.8324 65.1731 35.126 59.3187 35.126C53.6729 35.126 50.85 33.0409 50.85 28.8707V21.0034Z" fill="white"/>
<path d="M85.543 4.81179H81.3086V34.8133H73.73V4.81179H69.4957V0.312766H85.543V4.81179Z" fill="white"/>
<path d="M101.831 34.8133H87.0106V0.312766H101.735V4.76367H94.5891V14.0745H101.037V18.2607H94.5891V30.3864H101.831V34.8133Z" fill="white"/>
<path d="M121.8 34.8614H114.221C113.403 33.883 112.994 31.1082 112.994 26.537V26.4889L113.042 24.4198C113.09 21.5488 113.115 20.0812 113.115 20.017C113.115 18.8462 112.329 18.2607 110.757 18.2607V34.8133H103.178V0.312766H112.537C114.67 0.312766 116.523 0.801964 118.095 1.78036C119.683 2.75876 120.477 4.30655 120.477 6.42373V10.5619C120.477 13.2404 118.913 15.0529 115.785 15.9992C118.929 16.737 120.501 18.6376 120.501 21.7012L120.38 25.4784C120.38 30.9959 120.853 34.1236 121.8 34.8614ZM113.115 12.246V6.56809C113.115 5.36514 112.329 4.76367 110.757 4.76367V14.0745C112.329 14.0745 113.115 13.465 113.115 12.246Z" fill="white"/>
<path d="M10.2476 62.7264H7.87664V55.8754L6.49287 62.7264H4.66191L3.07565 55.8754V62.7264H1V50.5223H4.41722L5.63224 56.8541L6.68694 50.5223H10.2476V62.7264Z" fill="white"/>
<path d="M18.0271 62.7264H15.3945L14.9473 59.4498H13.7576L13.3104 62.7264H10.6779L12.6692 50.5223H16.0358L18.0271 62.7264ZM14.728 57.7562L14.3483 54.1137L13.9855 57.7562H14.728Z" fill="white"/>
<path d="M24.2709 54.786H21.8493V52.369C21.8493 52.1705 21.7283 52.0712 21.4865 52.0712C21.2333 52.0712 21.1068 52.1705 21.1068 52.369V60.837C21.1068 61.0356 21.2333 61.1349 21.4865 61.1349C21.7283 61.1349 21.8493 61.0356 21.8493 60.837V57.8243H24.2709V60.9221C24.2709 61.5008 23.9896 61.9661 23.4271 62.3179C22.8646 62.6639 22.229 62.837 21.5202 62.837C19.4727 62.837 18.4489 62.1051 18.4489 60.6413V52.7861C18.4489 51.2031 19.4727 50.4116 21.5202 50.4116C23.354 50.4116 24.2709 51.1322 24.2709 52.5733V54.786Z" fill="white"/>
<path d="M30.3966 52.1137H28.9115V62.7264H26.2537V52.1137H24.7687V50.5223H30.3966V52.1137Z" fill="white"/>
<path d="M36.1088 62.7264H30.9113V50.5223H36.0751V52.0967H33.5691V55.3903H35.8304V56.8711H33.5691V61.1604H36.1088V62.7264Z" fill="white"/>
<path d="M39.1379 58.2328V62.7264H36.5476V50.5223H39.3404C40.4485 50.5223 41.2698 50.6641 41.8042 50.9478C42.3442 51.2315 42.6142 51.8102 42.6142 52.6839V56.0711C42.6142 56.8711 42.3948 57.4385 41.9561 57.7732C41.5173 58.1023 40.5779 58.2555 39.1379 58.2328ZM40.0239 55.8413V52.9137C40.0239 52.4825 39.7285 52.2669 39.1379 52.2669V56.4881C39.7285 56.4881 40.0239 56.2725 40.0239 55.8413Z" fill="white"/>
<path d="M52.1993 62.7264H49.5415V56.8711H48.799V62.7264H46.1411V50.5223H48.799V55.3903H49.5415V50.5223H52.1993V62.7264Z" fill="white"/>
<path d="M59.9281 62.7264H57.2956L56.8484 59.4498H55.6587L55.2115 62.7264H52.579L54.5703 50.5223H57.9369L59.9281 62.7264ZM56.629 57.7562L56.2493 54.1137L55.8865 57.7562H56.629Z" fill="white"/>
<path d="M63.4297 62.7264V50.5223H66.5601C67.3082 50.5223 67.9579 50.6953 68.5092 51.0414C69.0604 51.3818 69.3361 51.9293 69.3361 52.6839V54.3775C69.3361 55.2343 68.8185 55.8385 67.7835 56.1903C68.8748 56.4626 69.4204 57.0498 69.4204 57.952V60.3179C69.4204 61.1235 69.1589 61.7278 68.6357 62.1306C68.1182 62.5278 67.4995 62.7264 66.7795 62.7264H63.4297ZM66.8301 54.8116V52.735C66.8301 52.3095 66.5826 52.0967 66.0876 52.0967V55.4584C66.5826 55.4584 66.8301 55.2428 66.8301 54.8116ZM66.8301 60.5136V57.4243C66.8301 56.9988 66.5826 56.786 66.0876 56.786V61.1604C66.5826 61.1604 66.8301 60.9448 66.8301 60.5136Z" fill="white"/>
<path d="M75.8077 54.786H73.3861V52.369C73.3861 52.1705 73.2651 52.0712 73.0233 52.0712C72.7701 52.0712 72.6436 52.1705 72.6436 52.369V60.837C72.6436 61.0356 72.7701 61.1349 73.0233 61.1349C73.2651 61.1349 73.3861 61.0356 73.3861 60.837V57.8243H75.8077V60.9221C75.8077 61.5008 75.5264 61.9661 74.9639 62.3179C74.4014 62.6639 73.7658 62.837 73.057 62.837C71.0095 62.837 69.9857 62.1051 69.9857 60.6413V52.7861C69.9857 51.2031 71.0095 50.4116 73.057 50.4116C74.8908 50.4116 75.8077 51.1322 75.8077 52.5733V54.786Z" fill="white"/>
<path d="M81.5874 62.7264H76.3899V50.5223H81.5537V52.0967H79.0477V55.3903H81.309V56.8711H79.0477V61.1604H81.5874V62.7264Z" fill="white"/>
<line x1="0.993671" y1="42.1665" x2="81.5812" y2="41.8265" stroke="#FBA500" stroke-width="3"/>
</svg>
