<svg width="105" height="109" viewBox="0 0 105 109" fill="none" xmlns="http://www.w3.org/2000/svg">
<path d="M0 106.764C0 107.357 0.238467 107.926 0.66294 108.345C1.08741 108.764 1.66312 109 2.26342 109H102.737C103.337 109 103.913 108.764 104.337 108.345C104.762 107.926 105 107.357 105 106.764C105 75.6511 77.4316 66.5174 70.2792 64.6392L69.0343 53.3254C70.5562 51.0431 71.663 48.5158 72.3049 45.8574C74.2288 44.5494 75.3605 41.4862 76.2093 38.49C77.4542 34.1411 77.341 31.3015 75.9038 29.5463C75.6355 29.2245 75.3187 28.9455 74.9644 28.719C75.0323 28.4395 75.0889 28.16 75.1568 27.847C76.5036 19.8647 75.7227 13.9954 72.8934 10.3956C71.813 8.9937 70.3241 7.95206 68.6269 7.41061C67.1748 5.43042 65.2864 3.80194 63.1041 2.64808C59.4576 0.558088 55.2322 -0.330764 51.0401 0.110305C49.3681 0.192098 47.7154 0.500563 46.1285 1.02704C44.2743 1.65407 42.5181 2.53464 40.9113 3.64307C38.9798 4.84765 37.2115 6.29024 35.6488 7.93605C32.7993 10.6912 30.7814 14.1749 29.8205 17.9977C29.0619 21.2381 29.0619 24.6067 29.8205 27.847C29.8734 28.1302 29.9299 28.4097 29.9903 28.6855C29.6547 28.9056 29.3535 29.173 29.0962 29.4792C27.625 31.2121 27.5232 34.0629 28.7794 38.4229C29.5716 41.2514 30.7033 44.4264 32.6611 45.7791C33.3005 48.5032 34.419 51.0952 35.9657 53.4372L34.7208 64.6168C27.6024 66.4838 0 75.64 0 106.764ZM46.9207 62.3362C50.5018 63.6069 54.419 63.6069 58.0001 62.3362C60.581 61.3732 62.9428 59.9141 64.9488 58.0432L65.8315 66.0925L59.4713 80.3801L57.7059 76.4337L60.0372 71.2799C60.2418 70.8273 60.2884 70.3203 60.1696 69.8386C60.0508 69.357 59.7733 68.928 59.3808 68.6191L53.9033 64.3485C53.5028 64.0338 53.0061 63.8625 52.4943 63.8625C51.9826 63.8625 51.4859 64.0338 51.0854 64.3485L45.6192 68.6303C45.2292 68.9385 44.9534 69.3655 44.8346 69.8448C44.7159 70.324 44.761 70.8286 44.9628 71.2799L47.2828 76.4225L45.5174 80.3578L39.1232 66.0925L40.0512 58.1997C42.0415 60.0138 44.3764 61.4198 46.9207 62.3362ZM51.8323 75.5282L49.8179 71.0563L52.5 68.9545L55.1822 71.0563L53.1677 75.5282C53.0398 75.8133 52.9738 76.1218 52.9738 76.4337C52.9738 76.7456 53.0398 77.0541 53.1677 77.3393L57.0268 85.9029L56.676 86.6966C56.3203 87.4869 55.7402 88.1584 55.0061 88.6296C54.2719 89.1009 53.4151 89.3517 52.5396 89.3517C51.6641 89.3517 50.8073 89.1009 50.0732 88.6296C49.339 88.1584 48.7589 87.4869 48.4032 86.6966L47.9732 85.8805L51.8097 77.3393C51.9427 77.0541 52.0135 76.7445 52.0174 76.4305C52.0213 76.1165 51.9583 75.8053 51.8323 75.517V75.5282ZM100.417 104.528H4.58342C5.83962 78.4125 28.8699 70.7097 35.5244 69.044L44.2272 88.4965C44.9249 90.0879 46.0815 91.4412 47.5527 92.3875C49.0238 93.3339 50.7445 93.8314 52.5 93.8181C54.2555 93.8314 55.9762 93.3339 57.4473 92.3875C58.9185 91.4412 60.0751 90.0879 60.7728 88.4965L69.4756 69.044C76.0509 70.7768 99.1491 78.7144 100.417 104.528ZM33.1478 37.2714C32.2424 34.1076 32.4348 32.8666 32.548 32.4977H32.6159C32.9974 32.5329 33.3817 32.4719 33.7329 32.3203C34.084 32.1687 34.3904 31.9315 34.6234 31.6309C34.8564 31.3304 35.0083 30.9763 35.0649 30.6019C35.1216 30.2276 35.0811 29.8451 34.9472 29.4904C34.6533 28.7034 34.4335 27.8913 34.2908 27.0644C33.6472 24.448 33.6239 21.7201 34.2229 19.0933C34.9984 16.0238 36.6248 13.2286 38.9195 11.0216C40.2634 9.61942 41.7849 8.39444 43.4463 7.37707C44.7279 6.48412 46.1297 5.77289 47.611 5.26412C48.8254 4.86419 50.0896 4.63097 51.3683 4.57098C54.662 4.21949 57.9835 4.91253 60.852 6.54978C62.613 7.44966 64.1067 8.78654 65.1865 10.4291C65.3522 10.7659 65.6046 11.0537 65.9185 11.2636C66.2323 11.4736 66.5965 11.5983 66.9746 11.6253C67.9795 11.8552 68.8554 12.4601 69.4191 13.3135C70.7658 15.1134 72.0899 18.9704 70.7318 27.0532C70.5661 27.8955 70.3391 28.725 70.0528 29.5351C69.9269 29.883 69.8902 30.2562 69.946 30.6215C70.0018 30.9868 70.1483 31.3328 70.3725 31.6285C70.5967 31.9241 70.8916 32.1603 71.2308 32.3159C71.57 32.4715 71.9429 32.5417 72.3162 32.5201H72.4068C72.5199 32.8666 72.7236 34.0964 71.807 37.2826C70.8111 40.793 70.0189 41.8439 69.7699 42.101C69.3252 42.1994 68.9209 42.4282 68.6099 42.7573C68.2989 43.0864 68.0958 43.5006 68.0271 43.9457C67.2235 49.0883 62.8891 55.8073 56.427 58.1103C53.8338 59.0321 50.9964 59.0321 48.4032 58.1103C41.9185 55.8744 37.6972 49.2672 36.8711 43.9233C36.8024 43.4783 36.5992 43.0641 36.2882 42.7349C35.9773 42.4058 35.573 42.1771 35.1283 42.0787C34.9132 41.8215 34.1324 40.7707 33.1478 37.2714Z" fill="#255D7D"/>
</svg>
