<svg width="96" height="97" viewBox="0 0 96 97" fill="none" xmlns="http://www.w3.org/2000/svg">
<path d="M23.277 58.3C23.4931 60.9205 23.2218 63.5583 22.477 66.08C22.2139 66.9536 22.2129 67.8852 22.4744 68.7594C22.7358 69.6335 23.2481 70.4116 23.9477 70.9973C24.6473 71.5829 25.5034 71.9504 26.4099 72.0539C27.3164 72.1575 28.2333 71.9927 29.047 71.58C33.677 69.3 39.817 65.23 43.567 59H46.617C54.4409 59 61.9443 55.892 67.4767 50.3596C73.009 44.8273 76.117 37.3239 76.117 29.5C76.117 21.6761 73.009 14.1727 67.4767 8.64035C61.9443 3.10803 54.4409 1.16585e-07 46.617 0H29.467C22.1896 0.0032216 15.1705 2.69813 9.76085 7.56601C4.35117 12.4339 0.933204 19.1307 0.164842 26.3675C-0.60352 33.6042 1.33202 40.8694 5.59893 46.7647C9.86583 52.66 16.1625 56.7687 23.277 58.3ZM29.467 5.05H46.647C53.1448 5.05 59.3765 7.63124 63.9711 12.2259C68.5658 16.8205 71.147 23.0522 71.147 29.55C71.147 36.0478 68.5658 42.2795 63.9711 46.8741C59.3765 51.4688 53.1448 54.05 46.647 54.05H42.137C41.6906 54.042 41.2502 54.1537 40.8615 54.3736C40.4729 54.5934 40.1502 54.9133 39.927 55.3C37.027 60.82 31.687 64.54 27.467 66.77C28.4063 63.1802 28.5902 59.4345 28.007 55.77C27.9269 55.24 27.6786 54.7498 27.2987 54.3717C26.9188 53.9936 26.4274 53.7476 25.897 53.67C19.8794 52.6633 14.4546 49.4458 10.6856 44.648C6.91653 39.8501 5.07499 33.8177 5.52178 27.7328C5.96857 21.648 8.67149 15.9493 13.1009 11.7534C17.5303 7.55752 23.3669 5.1669 29.467 5.05ZM95.147 64.85C95.123 69.8213 93.4363 74.6416 90.3556 78.5433C87.2748 82.4449 82.9772 85.2036 78.147 86.38C78.0679 88.0421 78.2707 89.7056 78.747 91.3C78.9762 92.063 78.9763 92.8765 78.7476 93.6396C78.5188 94.4027 78.0711 95.0818 77.4599 95.5929C76.8488 96.1039 76.1011 96.4244 75.3096 96.5145C74.518 96.6047 73.7174 96.4606 73.007 96.1C69.637 94.39 65.187 91.47 62.337 86.98H60.497C56.1814 86.9833 51.9588 85.7253 48.3487 83.3606C44.7385 80.9958 41.8982 77.6276 40.177 73.67C40.0457 73.3686 39.975 73.0443 39.969 72.7156C39.963 72.3869 40.0219 72.0603 40.1421 71.7543C40.2624 71.4483 40.4417 71.169 40.6699 70.9324C40.8981 70.6957 41.1706 70.5063 41.472 70.375C42.0807 70.1098 42.7698 70.0972 43.3877 70.3401C44.0056 70.5829 44.5018 71.0613 44.767 71.67C46.097 74.7366 48.2947 77.3474 51.0896 79.181C53.8844 81.0146 57.1544 81.991 60.497 81.99H63.777C64.2294 81.9879 64.674 82.1087 65.0632 82.3394C65.4524 82.5701 65.7717 82.9021 65.987 83.3C67.7662 86.3756 70.3484 88.9093 73.457 90.63C73.0609 88.3993 73.0372 86.1184 73.387 83.88C73.4671 83.35 73.7155 82.8598 74.0954 82.4817C74.4753 82.1036 74.9667 81.8576 75.497 81.78C79.2334 81.2337 82.6848 79.4688 85.3151 76.7595C87.9454 74.0502 89.6074 70.5481 90.043 66.7972C90.4785 63.0462 89.6631 59.2565 87.7236 56.0166C85.784 52.7766 82.8288 50.2679 79.317 48.88C78.8084 48.5735 78.4256 48.0959 78.237 47.5328C78.0484 46.9697 78.0664 46.3579 78.2878 45.8069C78.5092 45.2559 78.9194 44.8017 79.4452 44.5256C79.9709 44.2495 80.5777 44.1695 81.157 44.3C85.2891 45.9153 88.8362 48.7421 91.3329 52.4095C93.8296 56.0769 95.1591 60.4135 95.147 64.85ZM25.297 28.42C25.6277 27.8463 26.1725 27.4273 26.8118 27.2548C27.4511 27.0823 28.1327 27.1705 28.707 27.5C30.8843 28.7508 32.824 30.3756 34.437 32.3C38.0794 27.6893 42.3864 23.6452 47.217 20.3C47.762 19.9207 48.4354 19.7735 49.089 19.8907C49.7425 20.0079 50.3228 20.38 50.702 20.925C51.0813 21.47 51.2285 22.1434 51.1113 22.7969C50.9941 23.4505 50.622 24.0307 50.077 24.41C44.7569 28.0951 40.1377 32.7007 36.437 38.01C36.2067 38.3402 35.9001 38.61 35.5432 38.7963C35.1863 38.9826 34.7896 39.0799 34.387 39.08H34.277C33.8561 39.0621 33.4466 38.9381 33.0865 38.7196C32.7263 38.501 32.4273 38.195 32.217 37.83C30.7799 35.3368 28.7102 33.2671 26.217 31.83C25.6433 31.4993 25.2243 30.9546 25.0518 30.3153C24.8793 29.676 24.9675 28.9944 25.297 28.42Z" fill="#255D7D"/>
</svg>
