<svg width="29" height="28" viewBox="0 0 29 28" fill="none" xmlns="http://www.w3.org/2000/svg">
<path fill-rule="evenodd" clip-rule="evenodd" d="M7.39442 13.6554C7.39442 9.80103 10.533 6.66249 14.3873 6.66249C18.2416 6.66249 21.3802 9.80103 21.3802 13.6554C21.3802 17.5097 18.2416 20.6482 14.3873 20.6482C10.533 20.6482 7.39442 17.5097 7.39442 13.6554ZM21.6004 0H7.17418C3.65021 0 0.731934 2.91829 0.731934 6.44225V20.8685C0.731934 24.3924 3.65021 27.3107 7.17418 27.3107H21.6004C25.1794 27.3107 28.0427 24.3924 28.0427 20.8685V6.44225C28.0427 2.91829 25.1794 0 21.6004 0ZM23.032 3.63409C22.2612 3.63409 21.6004 4.29483 21.6004 5.0657C21.6004 5.83657 22.2612 6.49731 23.032 6.49731C23.8029 6.49731 24.4636 5.83657 24.4636 5.0657C24.4636 4.29483 23.8029 3.63409 23.032 3.63409Z" fill="white"/>
</svg>
